<svg viewBox="0 0 183 45" xmlns="http://www.w3.org/2000/svg">
    <path d="M84.4381 18.4187L83.2378 18.4973V0H85.6124V19.6501L83.2378 19.6501L67.5549 1.15281L68.7552 1.07421V19.6501H66.3806V0H69.5642L84.4381 18.4187Z" />
    <path d="M97.4889 19.9907C95.8015 19.9907 94.3054 19.6676 93.0006 19.0213C91.7133 18.3576 90.6956 17.4493 89.9476 16.2965C89.2169 15.1262 88.8516 13.7813 88.8516 12.2617C88.8516 10.7246 89.1995 9.37965 89.8954 8.22685C90.5912 7.07404 91.5567 6.1745 92.7919 5.52823C94.027 4.88196 95.4448 4.55883 97.0453 4.55883C98.6284 4.55883 100.011 4.90816 101.194 5.60683C102.377 6.3055 103.291 7.29237 103.934 8.56745C104.595 9.82505 104.926 11.2923 104.926 12.9691H90.6782V11.0565H103.908L102.499 11.9211C102.447 10.8207 102.186 9.86872 101.716 9.06525C101.247 8.26178 100.612 7.64171 99.8114 7.20504C99.0111 6.76837 98.0804 6.55004 97.0192 6.55004C95.8711 6.55004 94.8708 6.78584 94.0183 7.25744C93.1659 7.71158 92.4961 8.35785 92.009 9.19625C91.5393 10.0347 91.3045 11.0215 91.3045 12.1569C91.3045 13.3446 91.5741 14.3751 92.1134 15.2485C92.6527 16.1218 93.4095 16.7943 94.3837 17.2659C95.3579 17.7375 96.506 17.9733 97.8282 17.9733C99.0285 17.9733 100.203 17.7724 101.351 17.3707C102.517 16.969 103.56 16.4188 104.482 15.7201V17.6065C103.578 18.3401 102.499 18.9252 101.247 19.3619C99.994 19.7811 98.7415 19.9907 97.4889 19.9907Z" />
    <path d="M126.033 18.5235H125.015L130.547 4.89943H133L126.868 19.6501H124.415L118.857 5.92123H119.979L114.342 19.6501H111.889L105.757 4.89943H108.236L113.794 18.5235H112.724L118.178 4.89943H120.657L126.033 18.5235Z" />
    <path d="M38.4025 26.1883H40.8554V44.6594H38.4025V26.1883ZM30 25.0093H49.2579V27.1839H30V25.0093Z" />
    <path d="M54.4018 45C52.7143 45 51.2182 44.6769 49.9135 44.0306C48.6262 43.3669 47.6085 42.4586 46.8604 41.3058C46.1298 40.1355 45.7644 38.7906 45.7644 37.271C45.7644 35.7339 46.1124 34.389 46.8082 33.2361C47.5041 32.0833 48.4696 31.1838 49.7047 30.5375C50.9399 29.8913 52.3577 29.5681 53.9582 29.5681C55.5412 29.5681 56.9243 29.9175 58.1072 30.6161C59.2902 31.3148 60.2035 32.3017 60.8472 33.5767C61.5082 34.8344 61.8388 36.3016 61.8388 37.9784H47.5911V36.0658H60.8211L59.412 36.9304C59.3598 35.83 59.0988 34.878 58.6291 34.0746C58.1594 33.2711 57.5244 32.651 56.7242 32.2143C55.924 31.7777 54.9933 31.5593 53.9321 31.5593C52.7839 31.5593 51.7836 31.7951 50.9312 32.2667C50.0788 32.7209 49.409 33.3671 48.9219 34.2056C48.4522 35.044 48.2173 36.0308 48.2173 37.1662C48.2173 38.3539 48.487 39.3844 49.0263 40.2578C49.5656 41.1311 50.3223 41.8036 51.2965 42.2752C52.2707 42.7468 53.4189 42.9826 54.741 42.9826C55.9414 42.9826 57.1156 42.7817 58.2638 42.38C59.4294 41.9783 60.4731 41.4281 61.3952 40.7294V42.6158C60.4905 43.3494 59.412 43.9345 58.1594 44.3712C56.9069 44.7904 55.6543 45 54.4018 45Z" />
    <path d="M80.4257 39.0526C80.2343 40.2229 79.7559 41.2534 78.9905 42.1442C78.2425 43.035 77.2856 43.7337 76.1201 44.2402C74.9545 44.7467 73.6672 45 72.2581 45C70.6228 45 69.1789 44.6769 67.9264 44.0306C66.6738 43.3669 65.6909 42.4586 64.9777 41.3058C64.2818 40.1355 63.9339 38.7906 63.9339 37.271C63.9339 35.7514 64.2818 34.4152 64.9777 33.2623C65.6909 32.0921 66.6738 31.1838 67.9264 30.5375C69.1789 29.8913 70.6228 29.5681 72.2581 29.5681C73.6672 29.5681 74.9545 29.8214 76.1201 30.3279C77.2856 30.817 78.2425 31.5069 78.9905 32.3977C79.7559 33.2885 80.2343 34.3278 80.4257 35.5156H77.9467C77.6858 34.2929 77.0334 33.3322 75.9896 32.6335C74.9632 31.9174 73.7194 31.5593 72.2581 31.5593C71.0751 31.5593 70.04 31.7951 69.1528 32.2667C68.283 32.7383 67.6045 33.4021 67.1174 34.2579C66.6303 35.0964 66.3868 36.1007 66.3868 37.271C66.3868 38.4412 66.6303 39.4543 67.1174 40.3102C67.6045 41.1661 68.283 41.8298 69.1528 42.3014C70.04 42.7555 71.0751 42.9826 72.2581 42.9826C73.7368 42.9826 74.9893 42.6245 76.0157 41.9084C77.0595 41.1923 77.7032 40.2403 77.9467 39.0526H80.4257Z" />
    <path d="M83.2708 0.666992H85.6716V44.6594H83.2708V0.666992ZM91.7255 29.5681C93.0998 29.5681 94.2654 29.8476 95.2222 30.4065C96.179 30.948 96.9097 31.7427 97.4142 32.7907C97.9186 33.8213 98.1709 35.0702 98.1709 36.5374V44.6594H95.7702V36.9566C95.7702 35.1924 95.3701 33.865 94.5698 32.9741C93.7696 32.0659 92.5866 31.6117 91.021 31.6117C89.9598 31.6117 89.0204 31.8563 88.2027 32.3453C87.4025 32.8344 86.7762 33.5156 86.3239 34.389C85.889 35.2448 85.6716 36.2492 85.6716 37.402L84.706 36.7208C84.8278 35.2536 85.2019 33.9872 85.8281 32.9217C86.4544 31.8563 87.272 31.0353 88.281 30.4589C89.3074 29.8651 90.4556 29.5681 91.7255 29.5681Z" />
</svg>
