<svg viewBox="0 0 24 24" xmlns="http://www.w3.org/2000/svg">
<path fill-rule="evenodd" clip-rule="evenodd" d="M6.98888 4.89006C10.3246 4.62909 13.6755 4.62909 17.0112 4.89006L19.2519 5.06536C20.5 5.16301 21.521 6.0984 21.7273 7.33317C22.2435 10.4227 22.2435 13.5764 21.7273 16.6659C21.521 17.9007 20.5 18.8361 19.2519 18.9337L17.0112 19.109C13.6755 19.37 10.3246 19.37 6.98888 19.109L4.74818 18.9337C3.50011 18.8361 2.47909 17.9007 2.27278 16.6659C1.75657 13.5764 1.75657 10.4227 2.27278 7.33317C2.47909 6.0984 3.50011 5.16301 4.74818 5.06536L6.98888 4.89006ZM10 14.4697V9.5294C10 9.29621 10.2544 9.15218 10.4543 9.27215L14.5713 11.7423C14.7655 11.8588 14.7655 12.1403 14.5713 12.2568L10.4543 14.7269C10.2544 14.8469 10 14.7029 10 14.4697Z" />
</svg>
