<svg viewBox="0 0 24 25" xmlns="http://www.w3.org/2000/svg">
<path d="M11.68 15.8699C11.49 15.8699 11.3 15.7999 11.15 15.6499C10.86 15.3599 10.86 14.8799 11.15 14.5899L13.18 12.5599L11.15 10.5299C10.86 10.2399 10.86 9.75994 11.15 9.46994C11.44 9.17994 11.92 9.17994 12.21 9.46994L14.77 12.0299C15.06 12.3199 15.06 12.7999 14.77 13.0899L12.21 15.6499C12.07 15.7999 11.87 15.8699 11.68 15.8699Z" />
<path d="M14.17 13.3101H4C3.59 13.3101 3.25 12.9701 3.25 12.5601C3.25 12.1501 3.59 11.8101 4 11.8101H14.17C14.58 11.8101 14.92 12.1501 14.92 12.5601C14.92 12.9701 14.58 13.3101 14.17 13.3101Z" />
<path d="M12 21.25C11.59 21.25 11.25 20.91 11.25 20.5C11.25 20.09 11.59 19.75 12 19.75C16.27 19.75 19.25 16.77 19.25 12.5C19.25 8.23 16.27 5.25 12 5.25C11.59 5.25 11.25 4.91 11.25 4.5C11.25 4.09 11.59 3.75 12 3.75C17.15 3.75 20.75 7.35 20.75 12.5C20.75 17.65 17.15 21.25 12 21.25Z" />
</svg>
