<svg viewBox="0 0 24 24" xmlns="http://www.w3.org/2000/svg">
<path d="M12 8.74956C10.2051 8.74956 8.75 10.2046 8.75 11.9996C8.75 13.7945 10.2051 15.2496 12 15.2496C13.7949 15.2496 15.25 13.7945 15.25 11.9996C15.25 10.2046 13.7949 8.74956 12 8.74956Z" />
<path fill-rule="evenodd" clip-rule="evenodd" d="M6.76954 3.08103C10.2177 2.69565 13.7824 2.69565 17.2305 3.08103C19.1289 3.2932 20.6601 4.78898 20.8829 6.69403C21.2952 10.219 21.2952 13.7801 20.8829 17.3051C20.6601 19.2101 19.1289 20.7059 17.2305 20.9181C13.7824 21.3035 10.2177 21.3035 6.76954 20.9181C4.87114 20.7059 3.33995 19.2101 3.11713 17.3051C2.70485 13.7801 2.70485 10.219 3.11713 6.69403C3.33995 4.78898 4.87114 3.2932 6.76954 3.08103ZM17 5.99956C16.4477 5.99956 16 6.44727 16 6.99956C16 7.55184 16.4477 7.99956 17 7.99956C17.5523 7.99956 18 7.55184 18 6.99956C18 6.44727 17.5523 5.99956 17 5.99956ZM7.25 11.9996C7.25 9.3762 9.37665 7.24956 12 7.24956C14.6234 7.24956 16.75 9.3762 16.75 11.9996C16.75 14.6229 14.6234 16.7496 12 16.7496C9.37665 16.7496 7.25 14.6229 7.25 11.9996Z" />
</svg>
