<svg viewBox="0 0 73 32" xmlns="http://www.w3.org/2000/svg">
    <path d="M39.6763 13.1884L38.8564 13.2426V0.5H40.4784V14.0367L38.8564 14.0367L28.144 1.29416L28.9639 1.24001V14.0367H27.3419V0.5H29.5165L39.6763 13.1884Z" />
    <path d="M48.5908 14.2714C47.4381 14.2714 46.4162 14.0488 45.525 13.6036C44.6457 13.1463 43.9505 12.5206 43.4396 11.7265C42.9405 10.9203 42.6909 9.99377 42.6909 8.94693C42.6909 7.88805 42.9286 6.96154 43.4039 6.16738C43.8792 5.37323 44.5387 4.75354 45.3824 4.30834C46.2261 3.86313 47.1945 3.64052 48.2878 3.64052C49.3691 3.64052 50.3138 3.88118 51.1218 4.36248C51.9298 4.84379 52.5537 5.52364 52.9934 6.40202C53.4449 7.26837 53.6707 8.27911 53.6707 9.43425H43.9386V8.11667H52.9755L52.013 8.71229C51.9774 7.95423 51.7991 7.29845 51.4783 6.74495C51.1575 6.19145 50.7237 5.76429 50.1771 5.46347C49.6305 5.16266 48.9948 5.01225 48.2699 5.01225C47.4857 5.01225 46.8024 5.17469 46.2201 5.49957C45.6379 5.81242 45.1804 6.25763 44.8477 6.8352C44.5268 7.41276 44.3664 8.09261 44.3664 8.87473C44.3664 9.69295 44.5506 10.4029 44.919 11.0045C45.2873 11.6061 45.8042 12.0694 46.4697 12.3943C47.1351 12.7192 47.9194 12.8816 48.8225 12.8816C49.6424 12.8816 50.4445 12.7432 51.2288 12.4665C52.0249 12.1897 52.7379 11.8107 53.3677 11.3294V12.6289C52.7498 13.1343 52.013 13.5374 51.1575 13.8382C50.3019 14.127 49.4463 14.2714 48.5908 14.2714Z" />
    <path d="M68.0878 13.2606H67.3927L71.1714 3.87516H72.8469L68.6582 14.0367H66.9827L63.1862 4.57907H63.9526L60.1026 14.0367H58.4271L54.2384 3.87516H55.9317L59.7283 13.2606H58.9975L62.7227 3.87516H64.416L68.0878 13.2606Z" />
    <path d="M8.23122 18.5413H9.9067V31.2658H8.23122V18.5413ZM2.49182 17.7291H15.6461V19.2272H2.49182V17.7291Z" />
    <path d="M19.1597 31.5005C18.0071 31.5005 16.9851 31.2779 16.0939 30.8327C15.2146 30.3754 14.5195 29.7497 14.0085 28.9556C13.5094 28.1494 13.2599 27.2229 13.2599 26.176C13.2599 25.1172 13.4975 24.1906 13.9729 23.3965C14.4482 22.6023 15.1077 21.9827 15.9513 21.5374C16.795 21.0922 17.7635 20.8696 18.8567 20.8696C19.938 20.8696 20.8827 21.1103 21.6907 21.5916C22.4988 22.0729 23.1226 22.7527 23.5623 23.6311C24.0138 24.4975 24.2396 25.5082 24.2396 26.6634H14.5076V25.3458H23.5445L22.582 25.9414C22.5463 25.1833 22.3681 24.5276 22.0472 23.9741C21.7264 23.4206 21.2927 22.9934 20.7461 22.6926C20.1994 22.3918 19.5637 22.2414 18.8389 22.2414C18.0546 22.2414 17.3713 22.4038 16.7891 22.7287C16.2068 23.0415 15.7493 23.4867 15.4166 24.0643C15.0958 24.6419 14.9354 25.3217 14.9354 26.1038C14.9354 26.9221 15.1195 27.632 15.4879 28.2336C15.8563 28.8352 16.3732 29.2985 17.0386 29.6234C17.7041 29.9483 18.4883 30.1107 19.3914 30.1107C20.2113 30.1107 21.0134 29.9723 21.7977 29.6956C22.5938 29.4188 23.3068 29.0398 23.9366 28.5585V29.858C23.3187 30.3634 22.582 30.7665 21.7264 31.0673C20.8708 31.3561 20.0153 31.5005 19.1597 31.5005Z" />
    <path d="M36.9356 27.4034C36.8049 28.2096 36.4781 28.9195 35.9553 29.5331C35.4443 30.1468 34.7908 30.6281 33.9946 30.9771C33.1985 31.326 32.3191 31.5005 31.3566 31.5005C30.2396 31.5005 29.2534 31.2779 28.3978 30.8327C27.5422 30.3754 26.8709 29.7497 26.3837 28.9556C25.9084 28.1494 25.6707 27.2229 25.6707 26.176C25.6707 25.1292 25.9084 24.2087 26.3837 23.4145C26.8709 22.6083 27.5422 21.9827 28.3978 21.5374C29.2534 21.0922 30.2396 20.8696 31.3566 20.8696C32.3191 20.8696 33.1985 21.0441 33.9946 21.393C34.7908 21.73 35.4443 22.2053 35.9553 22.8189C36.4781 23.4326 36.8049 24.1485 36.9356 24.9667H35.2423C35.0641 24.1245 34.6185 23.4627 33.9055 22.9814C33.2044 22.488 32.3548 22.2414 31.3566 22.2414C30.5486 22.2414 29.8416 22.4038 29.2355 22.7287C28.6414 23.0536 28.178 23.5108 27.8453 24.1004C27.5125 24.678 27.3462 25.3698 27.3462 26.176C27.3462 26.9822 27.5125 27.6801 27.8453 28.2697C28.178 28.8593 28.6414 29.3166 29.2355 29.6414C29.8416 29.9543 30.5486 30.1107 31.3566 30.1107C32.3667 30.1107 33.2222 29.864 33.9233 29.3707C34.6363 28.8774 35.076 28.2216 35.2423 27.4034H36.9356Z" />
    <path d="M38.879 0.959961H40.5188V31.2658H38.879V0.959961ZM44.6541 20.8696C45.5928 20.8696 46.3889 21.0622 47.0425 21.4472C47.6961 21.8202 48.1951 22.3677 48.5397 23.0897C48.8843 23.7996 49.0566 24.6599 49.0566 25.6707V31.2658H47.4168V25.9594C47.4168 24.7441 47.1435 23.8297 46.5969 23.216C46.0503 22.5903 45.2423 22.2775 44.1728 22.2775C43.448 22.2775 42.8063 22.4459 42.2478 22.7828C41.7012 23.1197 41.2734 23.589 40.9644 24.1906C40.6674 24.7802 40.5188 25.4721 40.5188 26.2663L39.8593 25.797C39.9425 24.7863 40.198 23.9139 40.6258 23.1799C41.0536 22.4459 41.6121 21.8804 42.3013 21.4833C43.0023 21.0742 43.7866 20.8696 44.6541 20.8696Z" />
</svg>
