<svg viewBox="0 0 24 24" xmlns="http://www.w3.org/2000/svg">
<path fill-rule="evenodd" clip-rule="evenodd" d="M18.4831 19.7902L18.4838 19.7885L18.5012 19.745L21.5 4.62592V4.57682C21.5 4.20012 21.3608 3.87126 21.0579 3.674C20.7928 3.50133 20.4881 3.48904 20.2744 3.50526C20.0483 3.52241 19.8352 3.57883 19.6877 3.62579C19.6118 3.64995 19.5483 3.67323 19.5028 3.69083C19.48 3.69967 19.4615 3.70717 19.4481 3.71276L19.4349 3.71831L2.71508 10.2772L2.71048 10.2789C2.70145 10.2822 2.68951 10.2866 2.67508 10.2923C2.64633 10.3034 2.60719 10.3195 2.56121 10.3403C2.47093 10.3812 2.34619 10.4444 2.21969 10.531C2.00484 10.6781 1.59572 11.0264 1.6648 11.5787C1.72202 12.0361 2.03733 12.3266 2.2499 12.477C2.36384 12.5576 2.47286 12.6157 2.55269 12.6538C2.59313 12.673 2.62749 12.6878 2.65308 12.6982C2.66591 12.7034 2.67663 12.7076 2.68493 12.7107L2.69556 12.7147L2.70235 12.7172L5.62759 13.702C5.61772 13.8856 5.63592 14.0727 5.68459 14.2573L7.14988 19.8157C7.32361 20.4748 7.91984 20.9339 8.60141 20.9334C9.21234 20.9329 9.75417 20.5633 9.98435 20.0119L12.272 17.5658L16.201 20.5781L16.2569 20.6025C16.6138 20.7582 16.9474 20.8076 17.2523 20.7659C17.5568 20.7243 17.7987 20.5966 17.9805 20.4512C18.1594 20.3081 18.2819 20.1466 18.359 20.025C18.3982 19.9633 18.4274 19.909 18.4476 19.8681C18.4578 19.8476 18.4658 19.8302 18.4718 19.8167L18.4794 19.7993L18.4821 19.7928L18.4831 19.7902ZM7.13499 13.875C7.10169 13.7486 7.15397 13.6153 7.26426 13.5452L17.1863 7.24432C17.1863 7.24432 17.7699 6.89002 17.749 7.24432C17.749 7.24432 17.8532 7.30689 17.5404 7.59861C17.2438 7.87569 10.4688 14.4167 9.78322 15.0786C9.74365 15.1168 9.72003 15.1607 9.70608 15.2139L8.60028 19.4334L7.13499 13.875Z" />
</svg>
