<svg viewBox="0 0 25 24" xmlns="http://www.w3.org/2000/svg">
    <path d="M12.5001 21.2501C12.3101 21.2501 12.1201 21.1801 11.9701 21.0301L5.90012 14.9601C5.61012 14.6701 5.61012 14.1901 5.90012 13.9001C6.19012 13.6101 6.67012 13.6101 6.96012 13.9001L12.5001 19.4401L18.0401 13.9001C18.3301 13.6101 18.8101 13.6101 19.1001 13.9001C19.3901 14.1901 19.3901 14.6701 19.1001 14.9601L13.0301 21.0301C12.8801 21.1801 12.6901 21.2501 12.5001 21.2501Z" />
    <path d="M12.5 21.08C12.09 21.08 11.75 20.74 11.75 20.33V3.5C11.75 3.09 12.09 2.75 12.5 2.75C12.91 2.75 13.25 3.09 13.25 3.5V20.33C13.25 20.74 12.91 21.08 12.5 21.08Z" />
</svg>
