<svg viewBox="0 0 278 121" fill="none" xmlns="http://www.w3.org/2000/svg">
    <path d="M146.899 49.5258L143.672 49.7372V0H150.056V52.837L143.672 52.837L101.508 3.09977L104.735 2.88842V52.837H98.3512V0H106.91L146.899 49.5258Z" fill="white"/>
    <path d="M181.987 53.7528C177.45 53.7528 173.428 52.8839 169.92 51.1462C166.459 49.3615 163.723 46.9192 161.712 43.8194C159.747 40.6727 158.765 37.0563 158.765 32.9703C158.765 28.8372 159.7 25.2208 161.571 22.1211C163.442 19.0213 166.038 16.6025 169.359 14.8648C172.679 13.127 176.491 12.2582 180.794 12.2582C185.05 12.2582 188.768 13.1975 191.949 15.0761C195.129 16.9548 197.585 19.6084 199.315 23.0369C201.093 26.4185 201.981 30.3636 201.981 34.8724H163.676V29.7296H199.245L195.457 32.0544C195.316 29.0956 194.615 26.5359 193.352 24.3755C192.089 22.215 190.382 20.5477 188.231 19.3736C186.079 18.1994 183.577 17.6123 180.724 17.6123C177.637 17.6123 174.948 18.2464 172.656 19.5145C170.364 20.7356 168.563 22.4733 167.254 24.7277C165.991 26.9821 165.36 29.6357 165.36 32.6885C165.36 35.8822 166.085 38.6532 167.534 41.0015C168.984 43.3498 171.019 45.158 173.638 46.4261C176.257 47.6942 179.344 48.3282 182.899 48.3282C186.126 48.3282 189.283 47.7881 192.37 46.7079C195.503 45.6276 198.31 44.1482 200.789 42.2696V47.3419C198.356 49.3145 195.457 50.8879 192.089 52.062C188.722 53.1892 185.354 53.7528 181.987 53.7528Z" fill="white"/>
    <path d="M258.727 49.8076H255.991L270.864 13.174H277.459L260.972 52.837H254.377L239.434 15.9215H242.451L227.297 52.837H220.702L204.216 13.174H210.881L225.824 49.8076H222.947L237.61 13.174H244.275L258.727 49.8076Z" fill="white"/>
    <path d="M23.1313 70.4174H29.726V120.084H23.1313V70.4174ZM0.541016 67.2472H52.3163V73.0945H0.541016V67.2472Z" fill="white"/>
    <path d="M66.1458 121C61.609 121 57.5867 120.131 54.0789 118.393C50.6179 116.609 47.8818 114.166 45.8707 111.067C43.9063 107.92 42.9241 104.304 42.9241 100.217C42.9241 96.0845 43.8595 92.4681 45.7304 89.3683C47.6012 86.2685 50.197 83.8498 53.5177 82.112C56.8384 80.3743 60.6502 79.5054 64.9531 79.5054C69.2093 79.5054 72.9276 80.4447 76.108 82.3234C79.2884 84.202 81.7439 86.8556 83.4744 90.2841C85.2517 93.6657 86.1403 97.6109 86.1403 102.12H47.835V96.9768H83.4042L79.6158 99.3017C79.4755 96.3428 78.7739 93.7831 77.5111 91.6227C76.2483 89.4622 74.5412 87.7949 72.3897 86.6208C70.2382 85.4466 67.736 84.8595 64.883 84.8595C61.7961 84.8595 59.1068 85.4936 56.815 86.7617C54.5233 87.9828 52.7226 89.7205 51.413 91.9749C50.1502 94.2293 49.5188 96.8829 49.5188 99.9357C49.5188 103.129 50.2437 105.9 51.6936 108.249C53.1435 110.597 55.1781 112.405 57.7972 113.673C60.4164 114.941 63.5033 115.575 67.0578 115.575C70.285 115.575 73.442 115.035 76.5289 113.955C79.6626 112.875 82.4688 111.395 84.9477 109.517V114.589C82.5156 116.562 79.6158 118.135 76.2483 119.309C72.8808 120.436 69.5133 121 66.1458 121Z" fill="white"/>
    <path d="M136.112 105.008C135.597 108.155 134.311 110.926 132.253 113.321C130.242 115.716 127.67 117.595 124.536 118.957C121.402 120.319 117.941 121 114.153 121C109.756 121 105.874 120.131 102.507 118.393C99.1395 116.609 96.4969 114.166 94.5793 111.067C92.7085 107.92 91.7731 104.304 91.7731 100.217C91.7731 96.1314 92.7085 92.5385 94.5793 89.4387C96.4969 86.292 99.1395 83.8498 102.507 82.112C105.874 80.3743 109.756 79.5054 114.153 79.5054C117.941 79.5054 121.402 80.1864 124.536 81.5484C127.67 82.8635 130.242 84.7186 132.253 87.1139C134.311 89.5092 135.597 92.3037 136.112 95.4974H129.447C128.745 92.2097 126.991 89.6266 124.185 87.748C121.426 85.8224 118.082 84.8595 114.153 84.8595C110.972 84.8595 108.19 85.4936 105.804 86.7617C103.466 88.0298 101.642 89.8145 100.332 92.1158C99.0225 94.3702 98.3678 97.0707 98.3678 100.217C98.3678 103.364 99.0225 106.088 100.332 108.39C101.642 110.691 103.466 112.476 105.804 113.744C108.19 114.965 110.972 115.575 114.153 115.575C118.128 115.575 121.496 114.613 124.255 112.687C127.062 110.761 128.792 108.202 129.447 105.008H136.112Z" fill="white"/>
    <path d="M143.761 1.79346H150.215V120.084H143.761V1.79346ZM166.492 79.5054C170.186 79.5054 173.32 80.2569 175.893 81.7598C178.465 83.2157 180.429 85.3527 181.786 88.1707C183.142 90.9417 183.82 94.2998 183.82 98.2449V120.084H177.366V99.3721C177.366 94.6285 176.29 91.0591 174.139 88.6638C171.987 86.2216 168.807 85.0004 164.597 85.0004C161.744 85.0004 159.219 85.658 157.021 86.973C154.869 88.2881 153.185 90.1198 151.969 92.4681C150.8 94.7694 150.215 97.47 150.215 100.57L147.62 98.7381C147.947 94.7929 148.953 91.3878 150.636 88.5229C152.32 85.658 154.518 83.4506 157.231 81.9007C159.99 80.3038 163.077 79.5054 166.492 79.5054Z" fill="white"/>
</svg>
